
<!-- <svg xmlns="http://www.w3.org/2000/svg" viewBox="0 0 24 24">
  <title>YouTube</title>
  <path fill="currentColor" d="m10 15l5.19-3L10 9zm11.56-7.83c.13.47.22 1.1.28 1.9c.07.8.1 1.49.1 2.09L22 12c0 2.19-.16 3.8-.44 4.83c-.25.9-.83 1.48-1.73 1.73c-.47.13-1.33.22-2.65.28c-1.3.07-2.49.1-3.59.1L12 19c-4.19 0-6.8-.16-7.83-.44c-.9-.25-1.48-.83-1.73-1.73c-.13-.47-.22-1.1-.28-1.9c-.07-.8-.1-1.49-.1-2.09L2 12c0-2.19.16-3.8.44-4.83c.25-.9.83-1.48 1.73-1.73c.47-.13 1.33-.22 2.65-.28c1.3-.07 2.49-.1 3.59-.1L12 5c4.19 0 6.8.16 7.83.44c.9.25 1.48.83 1.73 1.73"/>
</svg> -->

<svg xmlns="http://www.w3.org/2000/svg" viewBox="0 0 256 180">
  <title>YouTube</title>
  <path fill="red" d="M250.346 28.075A32.18 32.18 0 0 0 227.69 5.418C207.824 0 127.87 0 127.87 0S47.912.164 28.046 5.582A32.18 32.18 0 0 0 5.39 28.24c-6.009 35.298-8.34 89.084.165 122.97a32.18 32.18 0 0 0 22.656 22.657c19.866 5.418 99.822 5.418 99.822 5.418s79.955 0 99.82-5.418a32.18 32.18 0 0 0 22.657-22.657c6.338-35.348 8.291-89.1-.164-123.134"/>
  <path fill="#FFF" d="m102.421 128.06l66.328-38.418l-66.328-38.418z"/>
</svg>
